<?xml version="1.0" standalone="no"?>
<!DOCTYPE svg PUBLIC "-//W3C//DTD SVG 20010904//EN"
 "http://www.w3.org/TR/2001/REC-SVG-20010904/DTD/svg10.dtd">
<svg version="1.0" xmlns="http://www.w3.org/2000/svg"
 width="512.000000pt" height="512.000000pt" viewBox="0 0 512.000000 512.000000"
 preserveAspectRatio="xMidYMid meet">
<metadata>
Created by potrace 1.14, written by Peter Selinger 2001-2017
</metadata>
<g transform="translate(0.000000,512.000000) scale(0.100000,-0.100000)"
fill="#000000" stroke="none">
<path d="M2472 5098 c-27 -13 -55 -38 -75 -67 l-32 -46 0 -892 0 -891 31 -43
c76 -105 215 -118 303 -29 23 23 43 56 50 82 9 32 11 262 9 908 l-3 865 -24
38 c-53 86 -167 119 -259 75z"/>
<path d="M132 2749 c-67 -20 -132 -113 -132 -189 0 -80 65 -170 138 -190 29
-7 305 -10 909 -8 l868 3 44 30 c65 44 93 103 86 179 -6 70 -30 113 -87 152
l-41 29 -876 2 c-535 1 -889 -2 -909 -8z"/>
<path d="M2499 2751 c-145 -47 -183 -240 -67 -343 94 -84 252 -50 307 66 59
126 -24 271 -160 281 -30 3 -66 1 -80 -4z"/>
<path d="M3175 2739 c-130 -69 -153 -224 -48 -327 53 -53 38 -52 968 -52 904
0 881 -1 947 43 64 44 95 156 64 230 -22 51 -79 104 -124 117 -24 6 -341 10
-902 10 -860 0 -866 0 -905 -21z"/>
<path d="M2493 2039 c-44 -13 -110 -81 -122 -126 -7 -25 -11 -330 -11 -894 0
-949 -4 -897 66 -964 42 -41 80 -53 152 -50 67 3 127 43 159 106 l23 44 -3
880 -2 880 -32 46 c-52 75 -139 104 -230 78z"/>
</g>
</svg>
